<?xml version="1.0" standalone="no"?>
<!DOCTYPE svg PUBLIC "-//W3C//DTD SVG 20010904//EN"
 "http://www.w3.org/TR/2001/REC-SVG-20010904/DTD/svg10.dtd">
<svg version="1.0" xmlns="http://www.w3.org/2000/svg"
 width="860.000000pt" height="264.000000pt" viewBox="0 0 860.000000 264.000000"
 preserveAspectRatio="xMidYMid meet">
<metadata>
Created by potrace 1.16, written by Peter Selinger 2001-2019
</metadata>
<g transform="translate(0.000000,264.000000) scale(0.100000,-0.100000)"
fill="#000000" stroke="none">
<path d="M4355 2203 c-143 -30 -250 -106 -298 -211 -18 -38 -22 -66 -22 -142
0 -115 21 -168 92 -230 48 -42 75 -52 399 -149 55 -17 108 -39 117 -49 25 -27
21 -78 -7 -107 -60 -60 -157 -37 -187 45 l-17 45 -208 0 -209 0 1 -53 c2 -68
51 -170 102 -212 95 -78 226 -113 427 -112 319 1 496 108 535 322 27 150 -32
281 -157 347 -58 31 -220 84 -363 118 -75 18 -120 48 -120 80 0 9 11 27 25 40
19 20 34 25 75 25 65 0 86 -11 100 -55 l12 -35 200 0 201 0 -7 56 c-17 143
-122 243 -295 280 -87 18 -305 17 -396 -3z"/>
<path d="M320 1742 l0 -448 25 -51 c48 -96 136 -158 273 -194 110 -29 335 -29
444 -1 201 54 296 154 318 338 5 44 8 241 6 439 l-2 360 -227 3 -226 2 -3
-406 -3 -406 -28 -24 c-55 -47 -128 -15 -141 64 -3 20 -6 202 -6 405 l0 367
-215 0 -215 0 0 -448z"/>
<path d="M3020 1620 l0 -570 190 0 190 0 0 259 c0 146 4 271 10 286 11 30 51
48 87 39 47 -12 53 -48 53 -329 l0 -255 188 2 187 3 3 284 c3 316 -5 376 -56
441 -61 77 -199 110 -318 75 -45 -13 -70 -28 -106 -65 l-48 -47 0 223 0 224
-190 0 -190 0 0 -570z"/>
<path d="M1708 2037 l-178 -62 0 -62 0 -63 -50 0 -50 0 0 -120 0 -120 50 0 50
0 0 -207 c0 -239 8 -270 79 -321 74 -54 241 -66 401 -29 l55 12 3 116 3 115
-64 -4 c-92 -6 -97 3 -97 180 l0 138 85 0 85 0 0 120 0 120 -85 0 -85 0 0 125
c0 94 -3 125 -12 124 -7 0 -93 -28 -190 -62z"/>
<path d="M5390 2037 l-175 -62 -3 -62 -3 -62 -47 -3 -47 -3 -3 -117 -3 -118
50 0 50 0 3 -212 c3 -206 4 -215 28 -258 19 -34 39 -51 84 -75 56 -28 67 -30
170 -30 61 0 144 6 184 13 l72 14 0 116 0 117 -57 -3 c-90 -5 -92 -3 -95 168
l-3 145 85 5 85 5 0 115 0 115 -85 5 -85 5 2 123 c1 108 -1 122 -15 121 -10 0
-96 -28 -192 -62z"/>
<path d="M6968 2037 l-178 -62 0 -62 0 -63 -50 0 -50 0 0 -120 0 -120 50 0 50
0 0 -207 c0 -182 3 -213 19 -249 41 -89 149 -131 311 -120 52 3 120 12 150 19
l55 12 3 116 3 115 -64 -4 c-92 -6 -97 3 -97 180 l0 138 85 0 85 0 0 120 0
120 -85 0 -85 0 0 125 c0 94 -3 125 -12 124 -7 0 -93 -28 -190 -62z"/>
<path d="M2392 1855 c-125 -28 -205 -88 -230 -174 -23 -75 -30 -72 145 -69
149 3 158 4 161 23 7 37 33 55 77 55 53 0 67 -16 73 -84 l4 -53 -109 -6 c-279
-17 -393 -97 -393 -274 0 -84 23 -138 76 -181 97 -81 287 -81 378 -2 18 17 36
30 39 30 3 0 7 -15 9 -32 l3 -33 168 -3 168 -2 -3 317 -3 318 -25 45 c-31 54
-88 96 -160 116 -78 22 -298 28 -378 9z m226 -479 c7 -35 -9 -107 -29 -127
-13 -13 -33 -19 -63 -19 -36 0 -48 5 -65 26 -56 71 3 147 109 141 35 -1 46 -6
48 -21z"/>
<path d="M6072 1855 c-131 -29 -219 -105 -229 -199 l-6 -46 157 0 c143 0 156
1 156 18 0 38 29 62 74 62 58 0 76 -21 76 -88 l0 -52 -53 0 c-87 0 -215 -19
-275 -42 -75 -28 -145 -96 -162 -158 -18 -68 -7 -153 27 -208 74 -120 296
-150 418 -56 l44 33 7 -34 6 -35 164 0 164 0 0 313 c0 282 -2 316 -19 352 -50
108 -172 156 -391 154 -52 0 -124 -7 -158 -14z m228 -514 c0 -80 -24 -111 -86
-111 -57 0 -84 25 -84 78 0 20 4 42 8 49 15 23 68 43 115 43 l47 0 0 -59z"/>
<path d="M7683 1850 c-218 -57 -311 -190 -301 -430 4 -92 8 -115 35 -171 68
-147 205 -219 413 -219 170 0 304 44 374 121 37 41 76 119 76 151 0 4 -74 8
-165 8 l-164 0 -16 -30 c-8 -16 -24 -34 -34 -40 -29 -15 -93 -12 -118 5 -22
16 -43 70 -43 113 l0 22 275 0 275 0 0 58 c-1 176 -73 317 -194 379 -105 53
-281 68 -413 33z m231 -205 c22 -24 39 -79 28 -90 -8 -8 -202 -6 -202 3 0 29
24 84 43 97 12 8 41 15 65 15 33 0 48 -6 66 -25z"/>
<path d="M5595 817 c-100 -26 -155 -73 -176 -149 -22 -82 16 -154 100 -191 24
-11 101 -28 170 -38 133 -20 167 -35 177 -74 15 -60 -54 -105 -161 -105 -88 0
-141 26 -163 81 l-15 39 -69 0 c-64 0 -68 -1 -68 -22 1 -39 36 -104 72 -131
71 -54 185 -75 314 -58 159 22 234 87 234 203 0 112 -62 157 -255 184 -145 20
-182 33 -191 69 -17 68 42 109 149 103 63 -3 72 -7 98 -36 16 -18 29 -41 29
-52 0 -18 7 -20 70 -20 68 0 70 1 70 25 0 37 -35 100 -69 124 -71 51 -219 73
-316 48z"/>
<path d="M320 557 c0 -250 0 -253 24 -287 83 -123 381 -145 510 -38 70 58 76
82 76 346 l0 232 -70 0 -70 0 0 -217 c0 -254 -5 -273 -80 -311 -58 -29 -122
-29 -180 1 -83 42 -85 48 -88 303 l-3 224 -60 0 -59 0 0 -253z"/>
<path d="M1250 495 l0 -315 60 0 60 0 0 241 c0 138 4 239 9 237 5 -1 89 -110
186 -240 l177 -238 94 0 94 0 0 315 0 316 -62 -3 -62 -3 -1 -227 c-1 -126 -4
-230 -7 -233 -3 -3 -83 101 -178 230 l-174 235 -98 0 -98 0 0 -315z"/>
<path d="M2260 495 l0 -315 70 0 70 0 0 315 0 315 -70 0 -70 0 0 -315z"/>
<path d="M2672 802 c1 -5 68 -147 148 -316 l145 -307 83 3 83 3 145 307 c79
169 144 310 144 313 0 3 -32 5 -72 3 l-72 -3 -107 -238 c-59 -131 -110 -238
-114 -238 -5 0 -56 107 -115 238 l-107 238 -83 3 c-46 2 -80 -1 -78 -6z"/>
<path d="M3670 495 l0 -315 260 0 260 0 0 50 0 50 -187 2 -188 3 -3 79 c-2 57
1 82 10 87 7 5 86 9 176 9 l162 0 0 50 0 50 -175 0 -176 0 3 73 3 72 178 3
177 2 0 50 0 50 -250 0 -250 0 0 -315z"/>
<path d="M4490 495 l0 -316 71 3 71 3 1 120 2 120 85 3 c182 7 224 -17 235
-134 11 -122 5 -114 91 -114 65 0 75 2 70 16 -3 9 -9 48 -12 87 -3 40 -10 86
-16 104 -12 40 -61 83 -96 84 -23 0 -18 4 25 24 68 30 93 70 93 145 0 69 -24
111 -82 142 -41 22 -55 23 -290 26 l-248 4 0 -317z m442 193 c51 -34 45 -114
-12 -143 -24 -12 -57 -15 -158 -13 l-127 3 -3 74 c-2 41 0 81 3 89 8 22 261
13 297 -10z"/>
<path d="M6310 495 l0 -315 70 0 70 0 0 315 0 315 -70 0 -70 0 0 -315z"/>
<path d="M6720 760 l0 -50 120 0 120 0 0 -265 0 -265 70 0 70 0 0 265 0 265
120 0 120 0 0 50 0 50 -310 0 -310 0 0 -50z"/>
<path d="M7578 748 c27 -35 95 -121 151 -193 l101 -130 0 -122 0 -123 75 0 75
0 0 123 0 122 101 130 c56 72 124 158 151 193 l50 62 -85 0 -85 0 -97 -130
c-53 -71 -99 -130 -103 -130 -4 0 -50 59 -102 130 l-95 130 -93 0 -94 0 50
-62z"/>
</g>
</svg>
